<?xml version="1.0" standalone="no"?>
<!DOCTYPE svg PUBLIC "-//W3C//DTD SVG 20010904//EN"
 "http://www.w3.org/TR/2001/REC-SVG-20010904/DTD/svg10.dtd">
<svg version="1.0" xmlns="http://www.w3.org/2000/svg"
 width="986.000000pt" height="442.000000pt" viewBox="0 0 986.000000 442.000000"
 preserveAspectRatio="xMidYMid meet">

<g transform="translate(0.000000,442.000000) scale(0.100000,-0.100000)"
fill="#000000" stroke="none">
<path d="M1430 4018 c-13 -46 -7 -136 11 -172 17 -32 51 -66 60 -60 5 3 9 0 9
-6 0 -19 39 9 55 40 19 37 19 113 1 148 -20 38 -66 79 -98 87 -25 6 -28 4 -38
-37z"/>
<path d="M1839 3902 c-46 -30 -89 -98 -89 -142 0 -30 14 -24 33 15 9 19 22 35
28 35 6 0 9 -3 7 -7 -22 -43 -38 -86 -34 -91 3 -3 20 -1 38 4 48 14 92 90 93
157 0 64 -13 69 -76 29z"/>
<path d="M912 3809 c10 -75 36 -134 74 -173 31 -31 117 -76 146 -76 24 0 32
17 11 24 -10 3 -24 15 -31 27 -12 19 -12 20 10 13 23 -7 47 -31 48 -47 0 -5 5
-5 10 -2 30 18 -10 131 -68 196 -42 47 -98 76 -178 93 l-31 7 9 -62z"/>
<path d="M2320 3739 c-95 -34 -140 -96 -140 -194 0 -36 6 -60 18 -76 19 -22
20 -22 73 -7 43 12 60 23 86 56 35 46 56 126 51 194 -4 51 -13 54 -88 27z
m-24 -156 c0 -10 -7 -22 -13 -26 -7 -4 -13 -13 -13 -18 0 -6 -9 -22 -20 -36
-11 -14 -17 -29 -14 -34 3 -5 0 -9 -6 -9 -5 0 -9 13 -8 29 1 16 6 27 10 25 4
-3 18 15 30 40 23 48 37 59 34 29z"/>
<path d="M1632 3705 c-10 -131 -90 -408 -139 -484 -15 -23 -16 -23 -26 -5 -6
10 -45 66 -87 124 -43 58 -92 129 -111 159 -75 124 -31 -15 69 -214 30 -60 59
-123 64 -140 5 -16 13 -96 18 -177 5 -89 15 -167 25 -197 9 -28 15 -64 13 -81
l-3 -30 -69 45 c-38 25 -97 62 -133 81 -91 52 -157 103 -199 157 -20 26 -41
44 -47 40 -5 -3 -7 -1 -4 4 4 6 -9 46 -28 89 -33 75 -34 77 -35 41 0 -51 49
-156 100 -211 46 -50 41 -57 -18 -27 -56 28 -200 61 -261 60 l-55 -2 65 -29
c35 -16 105 -45 154 -64 118 -46 337 -160 419 -218 142 -102 252 -252 285
-388 19 -80 41 -307 41 -424 0 -167 -19 -457 -36 -563 -42 -253 -186 -383
-464 -422 -152 -22 -290 -64 -419 -128 -68 -34 -121 -64 -119 -66 2 -2 33 3
68 11 98 23 437 82 510 88 36 4 92 8 125 11 168 11 331 125 405 281 28 60 54
149 65 226 3 21 11 38 17 38 18 0 2 -136 -25 -216 -33 -94 -48 -122 -102 -185
-61 -71 -130 -113 -245 -149 -110 -35 -108 -35 -112 -15 -2 12 -18 8 -78 -24
-41 -21 -115 -55 -165 -76 -49 -20 -92 -39 -95 -42 -5 -5 114 2 183 11 17 3
61 8 97 11 36 4 92 13 125 20 75 18 250 77 293 99 47 24 39 6 -15 -37 -27 -20
-61 -49 -78 -63 l-30 -26 41 6 c23 3 97 28 165 56 68 27 134 50 146 50 12 0
86 -20 165 -45 171 -54 290 -75 418 -74 104 1 102 2 -63 39 -140 32 -295 109
-363 182 -55 58 -89 115 -97 163 -3 17 -10 45 -16 63 -6 19 -6 30 0 27 5 -4 9
-14 9 -23 0 -30 84 -157 142 -214 63 -63 201 -137 293 -158 28 -6 70 -16 95
-22 72 -16 346 -16 405 2 45 13 47 15 25 21 -14 4 -41 7 -61 8 -59 2 -278 49
-379 81 -255 82 -403 203 -459 373 -33 97 -55 294 -93 804 -9 128 -9 176 1
230 28 153 121 248 293 298 65 19 262 24 293 8 28 -15 113 -28 100 -15 -25 24
-183 75 -240 77 -33 1 -62 3 -65 4 -3 1 20 15 51 31 62 32 179 143 245 232 65
89 54 101 -23 26 -76 -72 -242 -187 -348 -241 -39 -19 -110 -49 -160 -66 -93
-33 -139 -58 -214 -119 l-44 -36 5 95 c7 108 35 183 94 256 84 102 157 151
315 213 57 23 118 47 134 55 29 14 28 14 -25 9 -30 -3 -88 -14 -129 -25 -40
-11 -76 -17 -79 -14 -3 3 0 5 6 5 7 0 25 26 40 58 16 31 56 98 89 147 63 94
138 233 131 240 -3 4 -37 -37 -116 -140 -4 -5 -21 -31 -37 -57 -17 -27 -34
-48 -40 -48 -6 0 -9 36 -7 92 3 109 -5 103 -43 -32 -38 -136 -66 -182 -175
-285 -253 -240 -295 -293 -292 -365 l2 -35 -39 42 c-21 24 -59 85 -85 135 -36
73 -48 111 -58 180 -14 102 -7 151 53 350 51 171 61 231 57 373 -2 66 -5 107
-6 90z m183 -1591 c34 -284 45 -410 45 -503 0 -217 -30 -231 -46 -20 -29 363
-34 451 -34 559 0 150 15 135 35 -36z"/>
<path d="M1350 3649 c0 -62 21 -109 66 -149 38 -33 69 -39 78 -14 12 32 5 90
-14 122 -18 29 -101 92 -122 92 -4 0 -8 -23 -8 -51z"/>
<path d="M1932 3649 c-44 -22 -119 -103 -140 -152 -15 -34 -15 -57 -2 -92 9
-23 13 -25 25 -15 8 7 15 19 15 26 0 18 61 126 67 120 3 -3 -9 -33 -26 -67
-32 -65 -38 -89 -21 -89 5 0 9 -6 7 -12 -5 -27 40 -18 80 17 63 53 93 123 93
212 0 73 0 73 -27 73 -16 0 -47 -10 -71 -21z m85 -61 c-3 -8 -6 -5 -6 6 -1 11
2 17 5 13 3 -3 4 -12 1 -19z"/>
<path d="M878 3532 c-19 -2 -28 -9 -28 -22 0 -35 65 -144 99 -167 44 -30 103
-45 131 -35 22 8 21 9 -17 40 -22 17 -43 29 -46 26 -3 -3 -10 4 -17 15 -13 25
-5 26 32 3 14 -9 42 -27 62 -39 l36 -22 0 26 c0 42 -46 110 -94 138 -45 27
-113 42 -158 37z"/>
<path d="M2670 3486 c-41 -14 -116 -64 -143 -94 -24 -26 -48 -94 -38 -105 4
-4 32 8 61 27 30 20 56 34 58 31 6 -6 -51 -54 -64 -55 -6 0 -17 -7 -24 -15
-10 -12 -7 -15 15 -21 39 -10 103 4 156 33 65 35 129 129 129 188 0 24 -3 25
-57 25 -32 -1 -74 -7 -93 -14z"/>
<path d="M3870 3438 c0 -7 0 -661 0 -1453 0 -792 0 -1482 0 -1532 0 -86 1 -93
20 -93 20 0 20 3 18 1542 -3 1460 -4 1543 -20 1546 -10 2 -18 -2 -18 -10z"/>
<path d="M480 3351 c0 -31 35 -111 71 -163 30 -42 132 -88 196 -88 56 0 68 12
31 31 -16 9 -19 14 -9 17 11 4 11 6 0 14 -10 6 -7 8 11 6 14 -2 24 -9 22 -17
-1 -7 3 -11 10 -8 21 7 10 67 -20 117 -39 63 -132 109 -237 117 l-75 6 0 -32z
m215 -141 c3 -5 1 -10 -4 -10 -6 0 -11 5 -11 10 0 6 2 10 4 10 3 0 8 -4 11
-10z m41 -48 c-4 -3 -14 2 -24 12 -16 18 -16 18 6 6 13 -6 21 -14 18 -18z"/>
<path d="M2028 3293 c-9 -16 -17 -37 -19 -48 -5 -31 11 -96 21 -90 16 10 41
112 34 139 -8 33 -16 33 -36 -1z"/>
<path d="M1725 3199 c-60 -19 -107 -82 -107 -145 0 -72 72 -153 148 -169 37
-7 104 37 130 87 23 45 22 115 -4 165 -34 65 -90 86 -167 62z"/>
<path d="M1093 3184 c-30 -13 -4 -100 44 -148 72 -72 193 -86 193 -22 0 40
-60 118 -110 143 -47 23 -106 36 -127 27z m192 -182 c-3 -3 -11 0 -18 7 -9 10
-8 11 6 5 10 -3 15 -9 12 -12z"/>
<path d="M2610 3150 c-25 -12 -60 -35 -77 -53 -34 -32 -45 -77 -18 -77 9 0 12
-6 9 -15 -4 -10 3 -18 21 -25 79 -30 183 7 263 95 l53 58 -22 15 c-15 10 -51
17 -103 19 -66 3 -89 0 -126 -17z m-49 -113 c-13 -13 -26 -3 -16 12 3 6 11 8
17 5 6 -4 6 -10 -1 -17z"/>
<path d="M403 3007 c-18 -7 -40 -20 -50 -30 -17 -17 -16 -19 12 -43 47 -39 95
-56 160 -57 40 0 71 6 95 18 l35 19 -63 11 c-35 5 -63 13 -62 18 0 4 0 13 0
20 0 8 3 9 8 1 4 -6 33 -14 64 -18 49 -5 57 -4 52 9 -4 9 -25 27 -49 40 -33
20 -55 25 -106 24 -35 0 -78 -6 -96 -12z"/>
<path d="M2862 2932 c-30 -9 -92 -60 -92 -76 0 -15 42 -36 74 -36 61 0 132 56
124 98 -3 18 -63 26 -106 14z"/>
<path d="M2375 2886 c-35 -15 -90 -74 -100 -107 -6 -17 -2 -27 15 -41 40 -32
108 -1 141 64 39 76 13 115 -56 84z m-40 -126 c-3 -5 -13 -10 -21 -10 -8 0
-12 5 -9 10 3 6 13 10 21 10 8 0 12 -4 9 -10z"/>
<path d="M712 2751 c-63 -17 -162 -103 -162 -143 0 -20 114 -58 176 -58 66 0
108 15 165 58 74 55 84 103 27 133 -26 14 -163 21 -206 10z m229 -70 c-11 -20
-51 -31 -114 -31 -56 0 -38 12 46 31 40 9 73 17 75 18 1 0 -2 -7 -7 -18z"/>
<path d="M2047 2696 c-46 -43 -67 -109 -42 -134 13 -14 53 -8 82 11 51 34 74
87 57 131 -10 25 -67 20 -97 -8z"/>
<path d="M2655 2698 c-35 -13 -58 -29 -50 -36 3 -3 0 -11 -7 -19 -19 -24 13
-44 80 -50 50 -5 66 -2 94 15 50 31 62 56 37 78 -23 21 -111 28 -154 12z"/>
<path d="M6040 2602 c-78 -23 -77 -23 -52 -35 22 -10 22 -11 22 -243 0 -223
-1 -234 -20 -246 -35 -22 -22 -28 68 -28 l87 1 -27 20 c-28 21 -28 21 -28 148
0 119 1 129 23 149 50 47 122 51 152 9 12 -17 15 -53 15 -159 l0 -137 -27 -15
c-27 -14 -23 -15 66 -16 l94 0 -27 21 c-26 20 -26 21 -26 166 l0 145 -34 34
c-30 30 -40 34 -84 34 -41 0 -59 -6 -101 -35 l-50 -35 -3 118 -3 117 -45 -13z"/>
<path d="M7265 2597 c-53 -18 -57 -21 -39 -29 17 -8 23 -21 27 -61 6 -66 0
-81 -27 -72 -11 4 -49 9 -83 12 -55 5 -68 2 -109 -22 -128 -75 -124 -303 7
-370 44 -23 116 -19 165 10 l42 25 6 -25 c6 -23 9 -24 59 -18 62 7 68 11 44
27 -15 12 -17 38 -17 280 0 146 -3 265 -7 265 -5 -1 -35 -11 -68 -22z m-48
-189 l33 -23 0 -133 0 -132 -32 -20 c-18 -11 -46 -20 -63 -20 -43 0 -94 35
-111 75 -18 44 -18 156 0 199 30 73 108 97 173 54z"/>
<path d="M1074 2601 c-46 -12 -112 -69 -129 -113 -9 -22 39 -39 130 -45 94 -7
140 5 185 47 29 27 45 64 18 42 -16 -12 -136 -23 -143 -12 -6 10 30 20 71 20
51 0 95 12 91 24 -4 12 -127 44 -167 44 -14 0 -39 -3 -56 -7z"/>
<path d="M4568 2593 l32 -17 0 -240 c0 -133 -4 -246 -8 -252 -4 -6 -16 -16
-27 -22 -16 -9 2 -11 85 -12 l105 0 -33 20 -33 20 3 97 3 97 44 2 c94 5 128
15 164 47 55 50 73 136 42 197 -8 15 -31 39 -52 52 -35 21 -50 23 -198 25
-155 3 -159 2 -127 -14z m237 -17 c43 -18 65 -61 65 -128 0 -92 -55 -148 -145
-148 l-35 0 0 145 0 145 40 0 c22 0 56 -6 75 -14z"/>
<path d="M5400 2580 c-29 -55 30 -105 73 -62 17 18 19 26 11 49 -13 37 -67 45
-84 13z"/>
<path d="M5063 2431 c-33 -15 -44 -27 -52 -56 -22 -80 19 -128 145 -169 65
-21 86 -44 82 -87 -4 -48 -45 -67 -107 -50 -56 15 -74 31 -102 87 -11 24 -23
44 -25 44 -2 0 -4 -29 -4 -64 l0 -64 38 -13 c55 -20 170 -17 209 4 60 32 81
111 44 159 -20 25 -53 42 -154 79 -42 15 -61 28 -68 46 -22 60 54 104 124 72
13 -6 35 -28 48 -50 31 -50 42 -49 34 4 -10 59 -23 69 -102 74 -53 3 -77 0
-110 -16z"/>
<path d="M5417 2432 c-55 -14 -57 -15 -38 -29 20 -13 21 -24 21 -167 0 -148
-1 -154 -22 -169 -22 -15 -18 -16 67 -16 l90 -1 -25 20 c-25 19 -25 20 -27
196 -1 97 -4 178 -5 179 -2 1 -29 -5 -61 -13z"/>
<path d="M5685 2433 c-107 -56 -145 -179 -90 -289 37 -73 81 -99 170 -99 63 0
76 3 108 28 20 15 42 37 48 49 11 20 9 20 -34 -5 -112 -66 -219 -7 -235 129
-7 65 6 110 42 149 56 59 119 46 143 -29 11 -36 46 -51 68 -30 31 32 5 80 -58
103 -41 16 -127 13 -162 -6z"/>
<path d="M6563 2431 c-113 -52 -147 -214 -66 -319 66 -88 237 -97 321 -19 81
76 82 230 1 304 -59 54 -176 70 -256 34z m154 -21 c66 -40 98 -155 69 -253
-11 -39 -25 -62 -45 -76 -62 -45 -148 -14 -183 65 -27 62 -23 195 7 236 38 51
97 62 152 28z"/>
<path d="M7466 2434 c-47 -15 -48 -16 -27 -30 20 -14 21 -23 21 -168 0 -148
-1 -154 -22 -169 -22 -15 -17 -16 72 -16 94 0 95 0 68 17 l-28 17 0 131 c0
118 2 134 21 158 24 31 40 33 64 6 26 -29 57 -10 53 33 -3 28 -7 32 -36 35
-29 3 -40 -3 -73 -39 l-39 -42 0 41 c0 47 -2 48 -74 26z"/>
<path d="M7825 2443 c-55 -14 -99 -71 -85 -109 19 -48 63 -33 74 25 9 47 33
71 71 71 48 0 75 -35 75 -96 l0 -49 -89 -28 c-99 -30 -146 -62 -154 -104 -7
-39 19 -89 54 -103 40 -17 115 -7 151 20 l29 22 25 -27 c22 -23 30 -26 62 -20
20 4 43 12 51 18 11 10 9 13 -10 17 -24 6 -24 8 -29 145 -5 153 -12 174 -63
205 -31 19 -111 25 -162 13z m135 -253 l0 -70 -46 -22 c-41 -21 -47 -21 -72
-7 -36 19 -43 86 -14 113 18 15 105 54 125 56 4 0 7 -32 7 -70z"/>
<path d="M8185 2438 c-52 -14 -53 -15 -27 -34 21 -14 22 -22 22 -164 l0 -148
-27 -21 -28 -20 88 -1 c89 0 102 6 67 28 -18 11 -20 23 -20 136 0 69 3 132 6
141 7 18 74 55 99 55 9 0 27 -11 40 -25 24 -23 25 -29 25 -156 0 -122 -2 -134
-22 -156 l-21 -23 89 0 89 1 -27 20 -28 21 0 129 c0 117 2 131 20 149 45 45
100 51 135 15 24 -23 25 -29 25 -159 l0 -134 -27 -21 -28 -20 89 -1 90 0 -22
20 c-20 19 -22 30 -22 151 0 143 -11 186 -54 214 -39 26 -116 16 -169 -22
l-42 -29 -20 30 c-17 26 -28 32 -64 34 -61 4 -85 -3 -126 -39 l-35 -31 0 36
c0 40 -5 42 -75 24z"/>
<path d="M8965 2429 c-54 -28 -82 -64 -101 -126 -42 -141 57 -263 214 -263
179 0 277 220 153 348 -62 63 -186 83 -266 41z m153 -13 c42 -22 74 -88 80
-166 6 -82 -9 -131 -51 -166 -27 -23 -37 -25 -76 -20 -52 7 -86 34 -112 91
-38 82 -15 218 42 259 29 20 81 21 117 2z"/>
<path d="M9425 2436 c-58 -25 -83 -79 -64 -134 10 -31 68 -68 141 -91 60 -19
88 -47 88 -87 0 -29 -5 -37 -33 -50 -62 -30 -125 2 -189 96 -17 25 -17 25 -17
-33 -1 -56 0 -58 32 -71 86 -36 187 -31 237 10 37 32 48 84 27 128 -15 33 -48
53 -161 98 -47 18 -61 29 -69 52 -9 26 -6 32 17 53 50 43 126 23 168 -44 22
-36 23 -37 26 -14 2 13 1 38 -2 56 -5 26 -12 34 -37 39 -51 10 -132 6 -164 -8z"/>
<path d="M3084 2365 c-18 -14 -17 -15 17 -9 49 8 114 -21 160 -73 51 -56 63
-99 57 -205 -5 -75 -11 -99 -39 -156 -86 -168 -287 -313 -504 -362 -181 -41
-439 -34 -636 16 -107 28 -112 27 -89 -17 37 -67 401 -124 650 -101 186 18
288 52 435 148 179 116 294 291 312 470 12 129 -53 242 -163 284 -67 25 -171
27 -200 5z"/>
<path d="M2697 2266 c-66 -18 -66 -23 -4 -24 104 -1 178 -37 212 -103 8 -15
15 -54 15 -86 -1 -127 -105 -239 -281 -301 -154 -54 -394 -66 -543 -27 -32 9
-61 13 -64 10 -3 -3 0 -16 6 -29 8 -19 29 -30 84 -48 64 -20 93 -23 238 -23
142 1 177 4 250 24 253 70 405 206 425 381 11 96 -28 170 -110 213 -50 25
-161 32 -228 13z"/>
<path d="M550 2209 c-93 -27 -249 -103 -265 -129 -9 -14 4 -12 61 9 137 53
357 66 499 31 44 -11 129 -39 189 -61 116 -43 229 -69 301 -69 58 0 66 16 12
22 -23 3 -123 39 -222 81 -100 41 -219 85 -265 97 -96 25 -257 35 -310 19z"/>
<path d="M2342 2117 c-10 -11 -7 -21 11 -49 l24 -34 -35 -52 c-19 -29 -40 -52
-48 -52 -8 0 -14 -4 -14 -9 0 -23 143 40 165 72 24 34 19 94 -8 112 -36 23
-81 29 -95 12z"/>
<path d="M2620 2046 c0 -8 5 -18 10 -21 18 -11 11 -71 -12 -101 -50 -63 -73
-78 -166 -109 -29 -9 -51 -19 -48 -22 2 -3 36 0 74 7 134 22 231 106 219 190
-3 23 -11 47 -17 55 -16 19 -60 20 -60 1z"/>
<path d="M749 1970 c-47 -12 -153 -59 -147 -65 2 -3 36 2 74 10 138 29 344 13
516 -41 99 -31 342 -132 409 -169 26 -14 27 -14 32 10 3 19 -2 31 -21 46 -71
55 -328 152 -508 190 -110 23 -299 33 -355 19z"/>
<path d="M913 1725 c-175 -38 -321 -102 -408 -179 -22 -20 -37 -36 -32 -36 4
0 42 17 85 39 129 65 218 88 392 101 196 15 433 -31 602 -116 65 -33 72 -32
63 14 -9 50 -19 59 -93 94 -196 89 -432 121 -609 83z"/>
<path d="M5723 1641 c-57 -17 -65 -26 -33 -34 19 -5 20 -14 20 -241 0 -225 -1
-236 -20 -248 -35 -22 -22 -28 60 -28 44 0 80 3 80 8 0 4 -9 15 -20 25 -16 14
-20 29 -20 87 0 62 2 70 19 70 19 0 69 -67 110 -148 l21 -42 72 0 71 0 -47 41
c-26 23 -65 68 -87 100 -22 32 -49 68 -61 79 l-22 20 60 55 c32 31 75 64 94
73 l35 17 -48 3 c-26 2 -67 2 -90 0 l-42 -3 30 -17 30 -16 -70 -69 -70 -68 -3
178 c-1 97 -6 176 -10 176 -4 -1 -31 -9 -59 -18z"/>
<path d="M6593 1642 c-56 -16 -66 -26 -33 -35 19 -5 20 -14 20 -236 0 -219 -1
-232 -20 -248 -11 -10 -20 -21 -20 -25 0 -5 36 -8 80 -8 82 0 95 6 60 28 -19
11 -21 21 -18 89 2 47 7 78 15 80 10 4 82 -97 118 -167 15 -28 19 -30 75 -30
56 0 78 11 46 23 -7 3 -48 53 -90 112 -66 92 -75 109 -64 123 26 33 74 75 117
103 l45 29 -90 0 c-89 0 -89 0 -65 -19 23 -18 24 -20 9 -43 -9 -14 -39 -44
-67 -67 l-51 -43 0 176 c0 97 -3 175 -7 175 -5 -1 -32 -8 -60 -17z"/>
<path d="M4568 1630 l32 -20 0 -231 c0 -229 -5 -269 -35 -269 -7 0 -16 -4 -20
-9 -3 -6 36 -10 95 -10 59 0 100 3 100 9 0 6 -6 10 -14 10 -36 0 -46 29 -46
133 l0 102 63 1 c79 0 149 30 177 76 31 49 24 137 -14 177 -39 41 -86 51 -237
51 l-134 0 33 -20z m248 -34 c30 -30 34 -40 34 -85 0 -100 -43 -151 -130 -151
l-40 0 0 135 0 135 51 0 c45 0 55 -4 85 -34z"/>
<path d="M6408 1643 c-21 -5 -33 -43 -23 -72 8 -25 56 -29 75 -7 27 33 -11 89
-52 79z"/>
<path d="M6185 1579 c-10 -30 -65 -89 -94 -102 l-26 -10 30 -6 30 -6 3 -165
c3 -179 7 -192 61 -203 36 -7 92 8 123 32 30 25 20 34 -17 15 -16 -8 -38 -14
-49 -12 -38 5 -46 43 -43 193 l2 140 48 3 c26 2 47 7 47 12 0 5 -21 10 -47 12
l-48 3 1 58 c0 58 -9 74 -21 36z"/>
<path d="M5183 1493 c-12 -2 -40 -22 -62 -44 l-39 -40 5 42 6 42 -29 -7 c-16
-3 -44 -9 -61 -12 -37 -7 -43 -20 -13 -29 19 -6 20 -15 20 -162 0 -148 -1
-156 -22 -174 -23 -18 -22 -18 70 -19 60 0 91 4 87 10 -3 6 -13 10 -21 10 -24
0 -34 46 -34 157 0 90 3 111 21 139 24 40 44 43 71 12 24 -28 51 -15 56 26 3
25 -13 58 -27 55 -3 -1 -16 -4 -28 -6z"/>
<path d="M5370 1483 c-39 -12 -63 -30 -76 -55 -20 -39 -17 -57 12 -70 23 -11
29 -10 45 11 11 13 19 34 19 46 0 56 72 74 115 30 20 -19 25 -34 25 -72 0 -43
-3 -49 -22 -50 -52 -4 -158 -45 -187 -72 -41 -38 -44 -99 -6 -136 33 -34 110
-35 167 -2 l41 22 14 -22 c17 -26 69 -31 106 -11 l22 12 -25 6 c-25 6 -25 6
-30 150 -5 157 -12 180 -60 205 -28 14 -126 20 -160 8z m140 -248 c0 -63 -1
-66 -32 -85 -42 -25 -80 -25 -103 0 -22 24 -24 72 -4 96 17 21 86 52 117 53
21 1 22 -3 22 -64z"/>
<path d="M6397 1477 c-47 -12 -48 -12 -27 -29 18 -17 20 -29 20 -168 0 -139
-1 -151 -20 -162 -11 -7 -20 -16 -20 -19 0 -3 36 -7 80 -8 81 -2 96 4 60 27
-19 11 -20 23 -20 192 0 138 -3 180 -12 179 -7 0 -35 -6 -61 -12z"/>
<path d="M7019 1470 c-58 -31 -75 -100 -28 -115 28 -9 45 9 53 55 7 43 27 60
74 60 40 0 64 -31 69 -87 l5 -48 -93 -30 c-103 -33 -144 -61 -154 -105 -7 -33
15 -84 44 -100 36 -19 113 -12 156 14 l39 24 11 -21 c13 -26 58 -33 101 -16
l29 12 -25 6 c-25 7 -25 7 -30 151 -6 161 -13 184 -65 206 -49 20 -142 17
-186 -6z m171 -235 c0 -63 -1 -66 -32 -85 -18 -11 -43 -20 -56 -20 -28 0 -72
42 -72 69 0 29 39 69 85 85 72 26 75 24 75 -49z"/>
<path d="M7423 1471 c-38 -24 -53 -49 -53 -90 0 -44 43 -84 125 -116 98 -37
115 -50 115 -85 0 -84 -117 -95 -186 -18 -12 12 -29 37 -37 53 l-16 30 -1 -63
c0 -63 0 -63 35 -78 19 -8 66 -14 108 -14 91 0 135 24 155 85 24 72 -13 118
-123 155 -35 12 -75 30 -89 41 -53 41 -19 99 57 99 39 0 68 -21 110 -80 17
-25 17 -25 11 30 -3 30 -8 57 -10 59 -2 3 -41 6 -87 8 -69 4 -87 1 -114 -16z"/>
<path d="M2086 1395 c22 -34 160 -100 264 -126 71 -18 104 -21 215 -17 122 5
136 8 223 43 50 20 95 41 98 46 7 12 -28 11 -60 0 -13 -6 -73 -15 -131 -22
-169 -19 -400 14 -544 77 -72 32 -87 32 -65 -1z"/>
</g>
</svg>
